<mxfile host="app.diagrams.net" modified="2024-06-09T05:39:33.520Z" agent="Mozilla/5.0 (Windows NT 10.0; Win64; x64) AppleWebKit/537.36 (KHTML, like Gecko) Chrome/125.0.0.0 Safari/537.36" etag="d2a9rq0fAlYFAKec0zam" version="24.5.2" type="device">
  <diagram name="Page-1" id="c7558073-3199-34d8-9f00-42111426c3f3">
    <mxGraphModel dx="842" dy="426" grid="1" gridSize="10" guides="1" tooltips="1" connect="1" arrows="1" fold="1" page="1" pageScale="1" pageWidth="826" pageHeight="1169" background="none" math="0" shadow="0">
      <root>
        <mxCell id="0" />
        <mxCell id="1" parent="0" />
        <mxCell id="lBCxKUyDGXtEMYl2CQ5h-71" style="rounded=0;orthogonalLoop=1;jettySize=auto;html=1;exitX=0.5;exitY=0;exitDx=0;exitDy=0;entryX=0.5;entryY=0;entryDx=0;entryDy=0;elbow=vertical;" parent="1" source="lBCxKUyDGXtEMYl2CQ5h-7" target="lBCxKUyDGXtEMYl2CQ5h-14" edge="1">
          <mxGeometry relative="1" as="geometry" />
        </mxCell>
        <mxCell id="lBCxKUyDGXtEMYl2CQ5h-73" style="rounded=0;orthogonalLoop=1;jettySize=auto;html=1;exitX=0.5;exitY=1;exitDx=0;exitDy=0;entryX=0.5;entryY=0;entryDx=0;entryDy=0;elbow=vertical;" parent="1" source="lBCxKUyDGXtEMYl2CQ5h-7" target="lBCxKUyDGXtEMYl2CQ5h-15" edge="1">
          <mxGeometry relative="1" as="geometry" />
        </mxCell>
        <mxCell id="lBCxKUyDGXtEMYl2CQ5h-7" value="IP-ECN Classifier" style="rounded=0;whiteSpace=wrap;html=1;" parent="1" vertex="1">
          <mxGeometry x="250" y="760" width="80" height="40" as="geometry" />
        </mxCell>
        <mxCell id="lBCxKUyDGXtEMYl2CQ5h-10" value="" style="rounded=1;whiteSpace=wrap;html=1;direction=east;fillColor=#ffe6cc;strokeColor=#d79b00;" parent="1" vertex="1">
          <mxGeometry x="220" y="760" width="20" height="20" as="geometry" />
        </mxCell>
        <mxCell id="lBCxKUyDGXtEMYl2CQ5h-11" value="" style="rounded=1;whiteSpace=wrap;html=1;direction=east;fillColor=#ffe6cc;strokeColor=#d79b00;" parent="1" vertex="1">
          <mxGeometry x="190" y="760" width="20" height="20" as="geometry" />
        </mxCell>
        <mxCell id="lBCxKUyDGXtEMYl2CQ5h-12" value="" style="rounded=1;whiteSpace=wrap;html=1;direction=east;fillColor=#dae8fc;strokeColor=#6c8ebf;" parent="1" vertex="1">
          <mxGeometry x="160" y="760" width="20" height="20" as="geometry" />
        </mxCell>
        <mxCell id="lBCxKUyDGXtEMYl2CQ5h-13" value="" style="endArrow=classic;html=1;rounded=0;entryX=0;entryY=0.75;entryDx=0;entryDy=0;" parent="1" target="lBCxKUyDGXtEMYl2CQ5h-7" edge="1">
          <mxGeometry width="50" height="50" relative="1" as="geometry">
            <mxPoint x="160" y="790" as="sourcePoint" />
            <mxPoint x="150" y="790" as="targetPoint" />
          </mxGeometry>
        </mxCell>
        <mxCell id="QuyRpcc5FGiydWaoZpcN-4" style="edgeStyle=orthogonalEdgeStyle;rounded=0;orthogonalLoop=1;jettySize=auto;html=1;exitX=0.5;exitY=1;exitDx=0;exitDy=0;entryX=0;entryY=0.5;entryDx=0;entryDy=0;" edge="1" parent="1" source="lBCxKUyDGXtEMYl2CQ5h-14" target="lBCxKUyDGXtEMYl2CQ5h-22">
          <mxGeometry relative="1" as="geometry" />
        </mxCell>
        <mxCell id="lBCxKUyDGXtEMYl2CQ5h-14" value="" style="shape=partialRectangle;whiteSpace=wrap;html=1;bottom=1;right=1;left=1;top=0;fillColor=none;routingCenterX=-0.5;direction=north;shadow=0;" parent="1" vertex="1">
          <mxGeometry x="375" y="740" width="50" height="20" as="geometry" />
        </mxCell>
        <mxCell id="lBCxKUyDGXtEMYl2CQ5h-15" value="" style="shape=partialRectangle;whiteSpace=wrap;html=1;bottom=1;right=1;left=1;top=0;fillColor=none;routingCenterX=-0.5;direction=north;shadow=0;" parent="1" vertex="1">
          <mxGeometry x="375" y="797.5" width="50" height="20" as="geometry" />
        </mxCell>
        <mxCell id="lBCxKUyDGXtEMYl2CQ5h-16" value="" style="rounded=0;whiteSpace=wrap;html=1;fillColor=#dae8fc;strokeColor=#6c8ebf;shadow=0;" parent="1" vertex="1">
          <mxGeometry x="415" y="740" width="10" height="20" as="geometry" />
        </mxCell>
        <mxCell id="lBCxKUyDGXtEMYl2CQ5h-21" value="" style="rounded=0;whiteSpace=wrap;html=1;fillColor=#ffe6cc;strokeColor=#d79b00;shadow=0;" parent="1" vertex="1">
          <mxGeometry x="385" y="797.5" width="40" height="20" as="geometry" />
        </mxCell>
        <mxCell id="lBCxKUyDGXtEMYl2CQ5h-22" value="L4S AQM" style="rounded=0;whiteSpace=wrap;html=1;fontSize=9;shadow=0;" parent="1" vertex="1">
          <mxGeometry x="460" y="740" width="30" height="20" as="geometry" />
        </mxCell>
        <mxCell id="lBCxKUyDGXtEMYl2CQ5h-81" style="rounded=0;orthogonalLoop=1;jettySize=auto;html=1;exitX=1;exitY=0.5;exitDx=0;exitDy=0;entryX=0.5;entryY=0;entryDx=0;entryDy=0;elbow=vertical;" parent="1" source="lBCxKUyDGXtEMYl2CQ5h-39" target="lBCxKUyDGXtEMYl2CQ5h-80" edge="1">
          <mxGeometry relative="1" as="geometry" />
        </mxCell>
        <mxCell id="lBCxKUyDGXtEMYl2CQ5h-39" value="ECN marker" style="rounded=0;whiteSpace=wrap;html=1;shadow=0;" parent="1" vertex="1">
          <mxGeometry x="490" y="680" width="80" height="40" as="geometry" />
        </mxCell>
        <mxCell id="lBCxKUyDGXtEMYl2CQ5h-82" style="rounded=0;orthogonalLoop=1;jettySize=auto;html=1;exitX=1;exitY=0.5;exitDx=0;exitDy=0;entryX=0.5;entryY=1;entryDx=0;entryDy=0;elbow=vertical;" parent="1" source="lBCxKUyDGXtEMYl2CQ5h-40" target="lBCxKUyDGXtEMYl2CQ5h-80" edge="1">
          <mxGeometry relative="1" as="geometry" />
        </mxCell>
        <mxCell id="lBCxKUyDGXtEMYl2CQ5h-40" value="Drop/mark" style="rounded=0;whiteSpace=wrap;html=1;shadow=0;" parent="1" vertex="1">
          <mxGeometry x="490" y="830" width="80" height="40" as="geometry" />
        </mxCell>
        <mxCell id="lBCxKUyDGXtEMYl2CQ5h-57" style="edgeStyle=orthogonalEdgeStyle;rounded=0;orthogonalLoop=1;jettySize=auto;html=1;exitX=0.5;exitY=0;exitDx=0;exitDy=0;entryX=0.5;entryY=1;entryDx=0;entryDy=0;shadow=0;dashed=1;" parent="1" source="lBCxKUyDGXtEMYl2CQ5h-41" target="lBCxKUyDGXtEMYl2CQ5h-39" edge="1">
          <mxGeometry relative="1" as="geometry" />
        </mxCell>
        <mxCell id="lBCxKUyDGXtEMYl2CQ5h-41" value="Max" style="text;html=1;align=center;verticalAlign=middle;whiteSpace=wrap;rounded=0;shadow=0;" parent="1" vertex="1">
          <mxGeometry x="515" y="740" width="30" height="10" as="geometry" />
        </mxCell>
        <mxCell id="lBCxKUyDGXtEMYl2CQ5h-58" style="edgeStyle=orthogonalEdgeStyle;rounded=0;orthogonalLoop=1;jettySize=auto;html=1;entryX=0.5;entryY=0;entryDx=0;entryDy=0;endArrow=none;endFill=0;shadow=0;dashed=1;" parent="1" target="lBCxKUyDGXtEMYl2CQ5h-43" edge="1">
          <mxGeometry relative="1" as="geometry">
            <mxPoint x="530" y="780" as="sourcePoint" />
            <Array as="points">
              <mxPoint x="530" y="790" />
              <mxPoint x="530" y="790" />
            </Array>
          </mxGeometry>
        </mxCell>
        <mxCell id="lBCxKUyDGXtEMYl2CQ5h-42" value="K*p&lt;span style=&quot;font-size: 6.66667px;&quot;&gt;&lt;sub&gt;n&lt;/sub&gt;&lt;/span&gt;&#39;" style="text;html=1;align=center;verticalAlign=middle;whiteSpace=wrap;rounded=0;shadow=0;" parent="1" vertex="1">
          <mxGeometry x="515" y="775" width="30" height="10" as="geometry" />
        </mxCell>
        <mxCell id="lBCxKUyDGXtEMYl2CQ5h-43" value="p&lt;sub&gt;n&lt;/sub&gt;&#39;^2" style="text;html=1;align=center;verticalAlign=middle;whiteSpace=wrap;rounded=0;shadow=0;" parent="1" vertex="1">
          <mxGeometry x="515" y="797.5" width="30" height="10" as="geometry" />
        </mxCell>
        <mxCell id="lBCxKUyDGXtEMYl2CQ5h-48" value="Base AQM" style="rounded=0;whiteSpace=wrap;html=1;fontSize=9;shadow=0;" parent="1" vertex="1">
          <mxGeometry x="460" y="800" width="30" height="20" as="geometry" />
        </mxCell>
        <mxCell id="lBCxKUyDGXtEMYl2CQ5h-55" style="edgeStyle=orthogonalEdgeStyle;rounded=0;orthogonalLoop=1;jettySize=auto;html=1;exitX=0.5;exitY=0;exitDx=0;exitDy=0;entryX=0.504;entryY=1.251;entryDx=0;entryDy=0;entryPerimeter=0;shadow=0;dashed=1;" parent="1" source="lBCxKUyDGXtEMYl2CQ5h-42" target="lBCxKUyDGXtEMYl2CQ5h-41" edge="1">
          <mxGeometry relative="1" as="geometry" />
        </mxCell>
        <mxCell id="lBCxKUyDGXtEMYl2CQ5h-59" style="edgeStyle=orthogonalEdgeStyle;rounded=0;orthogonalLoop=1;jettySize=auto;html=1;exitX=0.5;exitY=1;exitDx=0;exitDy=0;entryX=0.5;entryY=0;entryDx=0;entryDy=0;shadow=0;dashed=1;" parent="1" source="lBCxKUyDGXtEMYl2CQ5h-43" target="lBCxKUyDGXtEMYl2CQ5h-40" edge="1">
          <mxGeometry relative="1" as="geometry" />
        </mxCell>
        <mxCell id="lBCxKUyDGXtEMYl2CQ5h-63" value="&lt;font style=&quot;font-size: 8px;&quot;&gt;p&lt;sub&gt;n&lt;/sub&gt;&#39;_L&lt;/font&gt;" style="text;html=1;align=center;verticalAlign=middle;whiteSpace=wrap;rounded=0;shadow=0;" parent="1" vertex="1">
          <mxGeometry x="495" y="730" width="20" height="10" as="geometry" />
        </mxCell>
        <mxCell id="lBCxKUyDGXtEMYl2CQ5h-64" value="&lt;font style=&quot;font-size: 8px;&quot;&gt;p&lt;span style=&quot;font-size: 6.66667px;&quot;&gt;&lt;sub&gt;n&lt;/sub&gt;&lt;/span&gt;&#39;&lt;/font&gt;" style="text;html=1;align=center;verticalAlign=middle;whiteSpace=wrap;rounded=0;shadow=0;" parent="1" vertex="1">
          <mxGeometry x="490" y="787.5" width="20" height="10" as="geometry" />
        </mxCell>
        <mxCell id="lBCxKUyDGXtEMYl2CQ5h-65" value="&lt;font style=&quot;font-size: 10px;&quot;&gt;p&lt;span style=&quot;font-size: 6.66667px;&quot;&gt;&lt;sub&gt;n&lt;/sub&gt;&lt;/span&gt;_L&lt;/font&gt;" style="text;html=1;align=center;verticalAlign=middle;whiteSpace=wrap;rounded=0;fontSize=10;shadow=0;" parent="1" vertex="1">
          <mxGeometry x="540" y="730" width="20" height="10" as="geometry" />
        </mxCell>
        <mxCell id="lBCxKUyDGXtEMYl2CQ5h-66" value="&lt;font style=&quot;font-size: 10px;&quot;&gt;p&lt;span style=&quot;font-size: 6.66667px;&quot;&gt;n&lt;/span&gt;_CL&lt;/font&gt;" style="text;html=1;align=center;verticalAlign=middle;whiteSpace=wrap;rounded=0;fontSize=10;shadow=0;" parent="1" vertex="1">
          <mxGeometry x="540" y="760" width="20" height="10" as="geometry" />
        </mxCell>
        <mxCell id="lBCxKUyDGXtEMYl2CQ5h-67" value="&lt;font style=&quot;font-size: 10px;&quot;&gt;p&lt;span style=&quot;font-size: 6.66667px;&quot;&gt;n&lt;/span&gt;_C&lt;/font&gt;" style="text;html=1;align=center;verticalAlign=middle;whiteSpace=wrap;rounded=0;fontSize=10;shadow=0;" parent="1" vertex="1">
          <mxGeometry x="540" y="810" width="20" height="10" as="geometry" />
        </mxCell>
        <mxCell id="lBCxKUyDGXtEMYl2CQ5h-80" value="Conditional Priority Scheduler" style="ellipse;whiteSpace=wrap;html=1;" parent="1" vertex="1">
          <mxGeometry x="610" y="750" width="110" height="60" as="geometry" />
        </mxCell>
        <mxCell id="lBCxKUyDGXtEMYl2CQ5h-84" value="" style="rounded=1;whiteSpace=wrap;html=1;direction=east;fillColor=#ffe6cc;strokeColor=#d79b00;" parent="1" vertex="1">
          <mxGeometry x="750" y="750" width="20" height="20" as="geometry" />
        </mxCell>
        <mxCell id="lBCxKUyDGXtEMYl2CQ5h-85" value="" style="rounded=1;whiteSpace=wrap;html=1;direction=east;fillColor=#dae8fc;strokeColor=#6c8ebf;" parent="1" vertex="1">
          <mxGeometry x="720" y="750" width="20" height="20" as="geometry" />
        </mxCell>
        <mxCell id="lBCxKUyDGXtEMYl2CQ5h-86" value="" style="endArrow=classic;html=1;rounded=0;" parent="1" edge="1">
          <mxGeometry width="50" height="50" relative="1" as="geometry">
            <mxPoint x="720" y="779.46" as="sourcePoint" />
            <mxPoint x="780" y="779" as="targetPoint" />
          </mxGeometry>
        </mxCell>
        <mxCell id="lBCxKUyDGXtEMYl2CQ5h-87" value="" style="rounded=1;whiteSpace=wrap;html=1;direction=east;fillColor=#ffe6cc;strokeColor=#d79b00;" parent="1" vertex="1">
          <mxGeometry x="320" y="810" width="10" height="10" as="geometry" />
        </mxCell>
        <mxCell id="lBCxKUyDGXtEMYl2CQ5h-88" value="" style="rounded=1;whiteSpace=wrap;html=1;direction=east;fillColor=#dae8fc;strokeColor=#6c8ebf;" parent="1" vertex="1">
          <mxGeometry x="320" y="740" width="10" height="10" as="geometry" />
        </mxCell>
        <mxCell id="lBCxKUyDGXtEMYl2CQ5h-91" value="Coupling" style="text;html=1;align=center;verticalAlign=middle;whiteSpace=wrap;rounded=0;direction=east;textDirection=vertical-rl;rotation=-180;" parent="1" vertex="1">
          <mxGeometry x="570" y="732.5" width="20" height="75" as="geometry" />
        </mxCell>
        <mxCell id="lBCxKUyDGXtEMYl2CQ5h-138" value="Traffic Flow" style="text;html=1;align=center;verticalAlign=middle;whiteSpace=wrap;rounded=0;fontSize=10;" parent="1" vertex="1">
          <mxGeometry x="210" y="855" width="80" height="10" as="geometry" />
        </mxCell>
        <mxCell id="lBCxKUyDGXtEMYl2CQ5h-140" value="Control Dependency" style="text;html=1;align=center;verticalAlign=middle;whiteSpace=wrap;rounded=0;fontSize=10;" parent="1" vertex="1">
          <mxGeometry x="180" y="870" width="110" height="10" as="geometry" />
        </mxCell>
        <mxCell id="lBCxKUyDGXtEMYl2CQ5h-141" value="&lt;h1&gt;&lt;font style=&quot;font-size: 16px;&quot;&gt;Legend :&lt;/font&gt;&lt;/h1&gt;" style="text;html=1;align=center;verticalAlign=middle;whiteSpace=wrap;rounded=0;" parent="1" vertex="1">
          <mxGeometry x="180" y="830" width="80" height="20" as="geometry" />
        </mxCell>
        <mxCell id="lBCxKUyDGXtEMYl2CQ5h-142" value="" style="endArrow=classic;html=1;rounded=0;" parent="1" edge="1">
          <mxGeometry width="50" height="50" relative="1" as="geometry">
            <mxPoint x="290" y="859.5799999999999" as="sourcePoint" />
            <mxPoint x="330" y="860" as="targetPoint" />
          </mxGeometry>
        </mxCell>
        <mxCell id="lBCxKUyDGXtEMYl2CQ5h-143" value="" style="endArrow=classic;html=1;rounded=0;dashed=1;" parent="1" edge="1">
          <mxGeometry width="50" height="50" relative="1" as="geometry">
            <mxPoint x="290" y="874.79" as="sourcePoint" />
            <mxPoint x="330" y="875" as="targetPoint" />
          </mxGeometry>
        </mxCell>
        <mxCell id="lBCxKUyDGXtEMYl2CQ5h-238" value="" style="shape=partialRectangle;whiteSpace=wrap;html=1;bottom=1;right=1;left=1;top=0;fillColor=none;routingCenterX=-0.5;direction=north;shadow=0;" parent="1" vertex="1">
          <mxGeometry x="375" y="822.5" width="50" height="20" as="geometry" />
        </mxCell>
        <mxCell id="lBCxKUyDGXtEMYl2CQ5h-239" value="" style="rounded=0;whiteSpace=wrap;html=1;fillColor=#ffe6cc;strokeColor=#d79b00;shadow=0;" parent="1" vertex="1">
          <mxGeometry x="385" y="822.5" width="40" height="20" as="geometry" />
        </mxCell>
        <mxCell id="lBCxKUyDGXtEMYl2CQ5h-240" value="" style="shape=partialRectangle;whiteSpace=wrap;html=1;bottom=1;right=1;left=1;top=0;fillColor=none;routingCenterX=-0.5;direction=north;shadow=0;" parent="1" vertex="1">
          <mxGeometry x="375" y="847.5" width="50" height="20" as="geometry" />
        </mxCell>
        <mxCell id="lBCxKUyDGXtEMYl2CQ5h-241" value="" style="rounded=0;whiteSpace=wrap;html=1;fillColor=#ffe6cc;strokeColor=#d79b00;shadow=0;" parent="1" vertex="1">
          <mxGeometry x="385" y="847.5" width="40" height="20" as="geometry" />
        </mxCell>
        <mxCell id="lBCxKUyDGXtEMYl2CQ5h-242" value="" style="shape=partialRectangle;whiteSpace=wrap;html=1;bottom=1;right=1;left=1;top=0;fillColor=none;routingCenterX=-0.5;direction=north;shadow=0;" parent="1" vertex="1">
          <mxGeometry x="375" y="715" width="50" height="20" as="geometry" />
        </mxCell>
        <mxCell id="lBCxKUyDGXtEMYl2CQ5h-243" value="" style="rounded=0;whiteSpace=wrap;html=1;fillColor=#dae8fc;strokeColor=#6c8ebf;shadow=0;" parent="1" vertex="1">
          <mxGeometry x="415" y="715" width="10" height="20" as="geometry" />
        </mxCell>
        <mxCell id="QuyRpcc5FGiydWaoZpcN-3" style="edgeStyle=orthogonalEdgeStyle;rounded=0;orthogonalLoop=1;jettySize=auto;html=1;exitX=1;exitY=0.5;exitDx=0;exitDy=0;entryX=0;entryY=0;entryDx=0;entryDy=0;" edge="1" parent="1" source="lBCxKUyDGXtEMYl2CQ5h-253" target="lBCxKUyDGXtEMYl2CQ5h-22">
          <mxGeometry relative="1" as="geometry" />
        </mxCell>
        <mxCell id="lBCxKUyDGXtEMYl2CQ5h-253" value="L4S(L&lt;sub style=&quot;font-size: 8px;&quot;&gt;2&lt;/sub&gt;)" style="text;html=1;align=center;verticalAlign=middle;whiteSpace=wrap;rounded=0;fontSize=8;" parent="1" vertex="1">
          <mxGeometry x="375" y="715" width="50" height="20" as="geometry" />
        </mxCell>
        <mxCell id="lBCxKUyDGXtEMYl2CQ5h-256" value="L4S(L&lt;sub style=&quot;font-size: 8px;&quot;&gt;3&lt;/sub&gt;)" style="text;html=1;align=center;verticalAlign=middle;whiteSpace=wrap;rounded=0;fontSize=8;" parent="1" vertex="1">
          <mxGeometry x="375" y="740" width="50" height="20" as="geometry" />
        </mxCell>
        <mxCell id="lBCxKUyDGXtEMYl2CQ5h-257" value="&lt;span style=&quot;font-size: 8px;&quot;&gt;Classic (C&lt;sub style=&quot;font-size: 8px;&quot;&gt;1&lt;/sub&gt;)&lt;/span&gt;" style="text;html=1;align=center;verticalAlign=middle;whiteSpace=wrap;rounded=0;fontSize=8;" parent="1" vertex="1">
          <mxGeometry x="375" y="797.5" width="50" height="20" as="geometry" />
        </mxCell>
        <mxCell id="QuyRpcc5FGiydWaoZpcN-6" style="edgeStyle=orthogonalEdgeStyle;rounded=0;orthogonalLoop=1;jettySize=auto;html=1;exitX=1;exitY=0.5;exitDx=0;exitDy=0;entryX=0;entryY=1;entryDx=0;entryDy=0;" edge="1" parent="1" source="lBCxKUyDGXtEMYl2CQ5h-259" target="lBCxKUyDGXtEMYl2CQ5h-48">
          <mxGeometry relative="1" as="geometry" />
        </mxCell>
        <mxCell id="lBCxKUyDGXtEMYl2CQ5h-259" value="&lt;span style=&quot;font-size: 8px;&quot;&gt;Classic (C&lt;sub style=&quot;font-size: 8px;&quot;&gt;2&lt;/sub&gt;)&lt;/span&gt;" style="text;html=1;align=center;verticalAlign=middle;whiteSpace=wrap;rounded=0;fontSize=8;" parent="1" vertex="1">
          <mxGeometry x="375" y="822.5" width="50" height="20" as="geometry" />
        </mxCell>
        <mxCell id="QuyRpcc5FGiydWaoZpcN-7" style="edgeStyle=orthogonalEdgeStyle;rounded=0;orthogonalLoop=1;jettySize=auto;html=1;exitX=1;exitY=0.5;exitDx=0;exitDy=0;entryX=0.5;entryY=1;entryDx=0;entryDy=0;" edge="1" parent="1" source="lBCxKUyDGXtEMYl2CQ5h-260" target="lBCxKUyDGXtEMYl2CQ5h-48">
          <mxGeometry relative="1" as="geometry" />
        </mxCell>
        <mxCell id="lBCxKUyDGXtEMYl2CQ5h-260" value="&lt;span style=&quot;font-size: 8px;&quot;&gt;Classic (C&lt;sub style=&quot;font-size: 8px;&quot;&gt;3&lt;/sub&gt;)&lt;/span&gt;" style="text;html=1;align=center;verticalAlign=middle;whiteSpace=wrap;rounded=0;fontSize=8;" parent="1" vertex="1">
          <mxGeometry x="375" y="847.5" width="50" height="20" as="geometry" />
        </mxCell>
        <mxCell id="lBCxKUyDGXtEMYl2CQ5h-315" value="" style="shape=partialRectangle;whiteSpace=wrap;html=1;bottom=1;right=1;left=1;top=0;fillColor=none;routingCenterX=-0.5;direction=north;shadow=0;" parent="1" vertex="1">
          <mxGeometry x="375" y="690" width="50" height="20" as="geometry" />
        </mxCell>
        <mxCell id="lBCxKUyDGXtEMYl2CQ5h-316" value="" style="rounded=0;whiteSpace=wrap;html=1;fillColor=#dae8fc;strokeColor=#6c8ebf;shadow=0;" parent="1" vertex="1">
          <mxGeometry x="415" y="690" width="10" height="20" as="geometry" />
        </mxCell>
        <mxCell id="lBCxKUyDGXtEMYl2CQ5h-317" value="L4S(L&lt;sub style=&quot;font-size: 8px;&quot;&gt;1&lt;/sub&gt;)" style="text;html=1;align=center;verticalAlign=middle;whiteSpace=wrap;rounded=0;fontSize=8;" parent="1" vertex="1">
          <mxGeometry x="375" y="690" width="50" height="20" as="geometry" />
        </mxCell>
        <mxCell id="lBCxKUyDGXtEMYl2CQ5h-333" style="edgeStyle=orthogonalEdgeStyle;rounded=0;orthogonalLoop=1;jettySize=auto;html=1;exitX=1;exitY=1;exitDx=0;exitDy=0;entryX=-0.069;entryY=0.55;entryDx=0;entryDy=0;entryPerimeter=0;" parent="1" source="lBCxKUyDGXtEMYl2CQ5h-22" target="lBCxKUyDGXtEMYl2CQ5h-41" edge="1">
          <mxGeometry relative="1" as="geometry">
            <Array as="points">
              <mxPoint x="490" y="746" />
              <mxPoint x="512" y="746" />
            </Array>
          </mxGeometry>
        </mxCell>
        <mxCell id="lBCxKUyDGXtEMYl2CQ5h-337" value="" style="endArrow=none;html=1;rounded=0;exitX=1;exitY=0.25;exitDx=0;exitDy=0;dashed=1;" parent="1" source="lBCxKUyDGXtEMYl2CQ5h-48" edge="1">
          <mxGeometry width="50" height="50" relative="1" as="geometry">
            <mxPoint x="470" y="800" as="sourcePoint" />
            <mxPoint x="530" y="790" as="targetPoint" />
            <Array as="points">
              <mxPoint x="510" y="805" />
              <mxPoint x="510" y="790" />
            </Array>
          </mxGeometry>
        </mxCell>
        <mxCell id="QuyRpcc5FGiydWaoZpcN-2" style="edgeStyle=orthogonalEdgeStyle;rounded=0;orthogonalLoop=1;jettySize=auto;html=1;exitX=0.5;exitY=1;exitDx=0;exitDy=0;entryX=0.275;entryY=-0.1;entryDx=0;entryDy=0;entryPerimeter=0;" edge="1" parent="1" source="lBCxKUyDGXtEMYl2CQ5h-315" target="lBCxKUyDGXtEMYl2CQ5h-22">
          <mxGeometry relative="1" as="geometry" />
        </mxCell>
        <mxCell id="QuyRpcc5FGiydWaoZpcN-8" style="edgeStyle=orthogonalEdgeStyle;rounded=0;orthogonalLoop=1;jettySize=auto;html=1;exitX=0.5;exitY=1;exitDx=0;exitDy=0;entryX=-0.05;entryY=0.395;entryDx=0;entryDy=0;entryPerimeter=0;" edge="1" parent="1" source="lBCxKUyDGXtEMYl2CQ5h-15" target="lBCxKUyDGXtEMYl2CQ5h-48">
          <mxGeometry relative="1" as="geometry" />
        </mxCell>
        <mxCell id="QuyRpcc5FGiydWaoZpcN-10" value="n = (1,2,3)" style="text;html=1;align=center;verticalAlign=middle;whiteSpace=wrap;rounded=0;" vertex="1" parent="1">
          <mxGeometry x="205" y="890" width="60" height="30" as="geometry" />
        </mxCell>
      </root>
    </mxGraphModel>
  </diagram>
</mxfile>
